<svg width="130" height="92" viewBox="0 0 130 92" fill="none" xmlns="http://www.w3.org/2000/svg">
<path d="M4 86V6C4 4.89543 4.89543 4 6 4H45.2787C49.1469 4 52.9737 4.79495 56.5218 6.33551C87.7249 19.8836 91.0233 62.8344 62.2548 80.9881L58.4349 83.3985C53.6711 86.4046 48.1533 88 42.5203 88H6C4.89543 88 4 87.1046 4 86Z" stroke="#F3367E" stroke-width="7" stroke-linecap="round"/>
<path d="M16.8572 70.9347V21.0652C16.8572 19.9606 17.7526 19.0652 18.8572 19.0652H44.3034C46.72 19.0652 49.1121 19.5492 51.3386 20.4888C71.692 29.0775 73.8081 57.0858 54.9761 68.635L52.5527 70.1212C49.5529 71.961 46.1024 72.9348 42.5833 72.9348H18.8572C17.7526 72.9348 16.8572 72.0393 16.8572 70.9347Z" stroke="#F3367E" stroke-width="7" stroke-linecap="round"/>
<path d="M29.7144 56.3261V35.674C29.7144 34.5694 30.6098 33.674 31.7144 33.674H43.1992C44.2483 33.674 45.2879 33.8735 46.2624 34.2619C55.8855 38.0971 56.8522 51.3379 47.8881 56.5301L46.8052 57.1573C45.4833 57.9229 43.9828 58.3261 42.4552 58.3261H31.7144C30.6098 58.3261 29.7144 57.4307 29.7144 56.3261Z" stroke="#F3367E" stroke-width="7" stroke-linecap="round"/>
</svg>
