<svg width="62" height="107" viewBox="0 0 62 107" fill="none" xmlns="http://www.w3.org/2000/svg">
<path d="M22.7985 29.1836L24.8228 25.7573C25.6513 24.355 24.5458 22.6034 22.9234 22.7479L5.04094 24.3407C4.72091 24.3692 4.43837 24.1328 4.40987 23.8128C4.38137 23.4928 4.09883 23.2565 3.7788 23.285L3.21537 23.3352C2.75185 23.3764 2.32141 23.0916 2.17824 22.6488L2.15053 22.5631C2.02357 22.1705 1.64185 21.9178 1.23079 21.9545L1.12269 21.9641C0.695989 22.0021 0.319271 21.687 0.281265 21.2603C0.24326 20.8336 0.558357 20.4569 0.985056 20.4189L1.02325 20.4155C1.44995 20.3775 1.76505 20.0007 1.72704 19.574C1.68903 19.1473 2.00413 18.7706 2.43083 18.7326L3.55906 18.6321C3.77241 18.6131 3.92996 18.4248 3.91096 18.2114C3.89195 17.9981 4.0495 17.8097 4.26285 17.7907L13.0251 17.0103L23.933 16.0387L33.5333 15.1836C33.8154 15.1585 34.0996 15.1936 34.3671 15.2865L39.7863 17.1691C40.4016 17.3829 41.0325 16.8905 40.9748 16.2417C40.9652 16.1345 40.975 16.0264 41.0037 15.9227L41.8448 12.8834C41.8811 12.7523 41.9306 12.6253 41.9927 12.5043L43.1902 10.1687C43.2361 10.0792 43.2886 9.99334 43.3474 9.9118L46.2578 5.87352L48.9749 2.90372C49.102 2.76472 49.2482 2.64439 49.409 2.54629L52.1316 0.885637C52.3939 0.725638 52.6896 0.628229 52.9956 0.600969L55.6279 0.366521C56.0174 0.331824 56.4086 0.412098 56.753 0.597411L58.2817 1.41997C58.7533 1.67375 59.1035 2.1061 59.2537 2.62019L60.1778 5.78259C60.2546 6.04525 60.2767 6.32088 60.2426 6.5924L59.8345 9.84708C59.7959 10.155 59.6862 10.4497 59.514 10.7079L57.5755 13.6147C57.4784 13.7603 57.3627 13.8924 57.2313 14.0078L53.4821 17.3005L50.6633 19.4984L49.5914 20.2174C49.4172 20.3343 49.2801 20.4985 49.1962 20.6907C49.0087 21.1206 49.1146 21.6221 49.46 21.9394L50.885 23.249C50.9664 23.3238 51.0415 23.4053 51.1095 23.4925L54.2572 27.533C54.3594 27.6643 54.4449 27.8078 54.5116 27.9601L57.4433 34.6576C57.4996 34.7862 57.5422 34.9204 57.5704 35.0579L59.0958 42.4988L60.5432 48.7944L61.1061 55.1149C61.1278 55.3578 60.9484 55.5723 60.7055 55.5939C60.4626 55.6155 60.2832 55.83 60.3048 56.0729L60.5564 58.8975C60.5954 59.3348 60.2725 59.7208 59.8352 59.7598C59.398 59.7987 59.0751 60.1847 59.1141 60.622L59.1544 61.0753C59.1977 61.5611 58.8389 61.99 58.3531 62.0333C57.8673 62.0766 57.4384 61.7178 57.3951 61.232L57.3469 60.6907C57.3123 60.3021 56.9691 60.0151 56.5805 60.0497C56.1918 60.0843 55.8487 59.7973 55.814 59.4086L55.5625 56.584C55.5365 56.2925 55.2791 56.0772 54.9876 56.1032C54.6961 56.1291 54.4388 55.9139 54.4128 55.6224L53.7545 48.231L51.9075 39.44L49.9799 33.076C49.9255 32.8963 49.846 32.7251 49.7439 32.5675L47.4777 29.0731C46.8068 28.0386 45.3688 27.8517 44.4557 28.6802L41.4397 31.4169L36.1337 37.5594C36.0277 37.6822 35.937 37.8174 35.8636 37.962L32.4487 44.6937C32.3856 44.818 32.3357 44.9485 32.2998 45.0832L28.3661 59.8371L26.5662 71.4838L25.5083 81.5069L23.8575 93.0506L22.5384 104.123C22.4265 105.062 21.672 105.795 20.7298 105.879L13.7675 106.499C12.9243 106.574 12.2857 105.752 12.5668 104.953C12.7182 104.523 13.1069 104.221 13.5611 104.181L16.1909 103.947C17.0185 103.873 17.7142 103.295 17.939 102.496L18.1822 101.63C18.2199 101.496 18.2434 101.358 18.2525 101.219L18.8378 92.2246L19.4155 84.7752L19.5938 74.8304L18.6288 63.9965C18.6011 63.6861 18.3271 63.4569 18.0167 63.4845C17.7344 63.5097 17.5145 63.7404 17.503 64.0236L17.1346 73.1026L16.8398 79.7481L16.0997 100.832C16.0643 101.841 15.2834 102.665 14.2784 102.754L5.65764 103.522C4.86755 103.593 4.34066 102.725 4.76724 102.056L5.11476 101.512C5.31713 101.194 5.64945 100.983 6.02255 100.934L10.5369 100.341C11.5992 100.202 12.3629 99.2497 12.2688 98.1825L11.6467 91.1263L10.9058 82.8076L10.2693 75.6609L10.9893 61.5413C10.9947 61.4367 11.0082 61.3327 11.0299 61.2302L11.9604 56.8206L13.8427 46.7299C13.868 46.5943 13.9073 46.4618 13.9598 46.3343L17.8931 36.7945C17.9402 36.6803 17.9978 36.5707 18.0651 36.4671L22.7985 29.1836Z" fill="#090418"/>
</svg>
