<svg width="85" height="85" viewBox="0 0 85 85" fill="none" xmlns="http://www.w3.org/2000/svg">
<path d="M42.5 81C42.5 83.2091 44.295 85.0196 46.4944 84.812C56.3005 83.8866 65.5288 79.5753 72.552 72.552C80.5223 64.5817 85 53.7717 85 42.5C85 31.2283 80.5223 20.4183 72.552 12.448C65.5288 5.4247 56.3005 1.11338 46.4944 0.187998C44.295 -0.0195523 42.5 1.79086 42.5 4L42.5 15.55C42.5 17.7591 44.3042 19.5145 46.4799 19.8976C51.0887 20.7092 55.3741 22.9179 58.7281 26.2719C63.0321 30.5759 65.45 36.4133 65.45 42.5C65.45 48.5867 63.0321 54.4241 58.7281 58.7281C55.3741 62.0821 51.0887 64.2908 46.4799 65.1024C44.3042 65.4855 42.5 67.2409 42.5 69.45V81Z" fill="#F3367E"/>
<path d="M10.0998 44.9765C8.215 43.3789 8.215 40.4715 10.0998 38.8739L22.7982 28.1103C25.3972 25.9072 29.3846 27.7545 29.3846 31.1616V52.6888C29.3846 56.0959 25.3972 57.9431 22.7982 55.7401L10.0998 44.9765Z" fill="#F3367E"/>
</svg>
