<svg width="82" height="90" viewBox="0 0 82 90" fill="none" xmlns="http://www.w3.org/2000/svg">
<path d="M40.9403 9.94742L37.484 3.484L37.3633 3.26694C37.0353 2.67746 36.6333 2.13232 36.1671 1.64476C35.9659 1.43436 35.7454 1.24329 35.5085 1.07405L35.4556 1.03621C35.1213 0.797366 34.7081 0.695813 34.3012 0.752473L34.0787 0.783455C33.8739 0.81197 33.6811 0.897014 33.522 1.02904C33.1138 1.36769 32.7792 1.78619 32.5386 2.25885L32.0337 3.25081L31.4789 4.51857L11.25 53.8683C11.126 54.1706 11.5063 54.4251 11.7386 54.1953L37.0574 29.1395L39.6513 26.0004L41.8553 22.9157L42.5197 21.7426C42.9704 20.9468 43.3454 20.1104 43.6397 19.2445C43.7682 18.8666 43.8179 18.4665 43.7858 18.0688L43.7712 17.8882C43.7185 17.2347 43.6045 16.5876 43.4309 15.9554C43.1505 14.9344 42.7863 13.9384 42.3418 12.9774L40.9403 9.94742Z" fill="#F3367E"/>
<path d="M68.8145 64.5594L47.5427 24.3656L47.5729 30.7108L48.5103 40.6997L49.1328 51.1292L49.8527 58.9657L49.9539 60.4809C50.0257 61.5569 50.3121 62.6076 50.7963 63.5712C51.1713 64.3174 51.7224 64.9611 52.4019 65.4467L52.5423 65.547C53.1459 65.9782 53.8377 66.27 54.5678 66.4011L55.3257 66.5373L58.5945 66.8758L67.0785 67.2895C67.711 67.3203 68.3157 67.0276 68.6838 66.5124C69.0937 65.9387 69.1443 65.1826 68.8145 64.5594Z" fill="#F3367E"/>
<path d="M30.0157 72.0929L44.1708 72.4782C44.8398 72.4964 45.3375 71.8652 45.1637 71.2189L44.0725 67.1594L42.9328 63.3497L41.5682 58.3808L40.3999 53.9515C40.1741 53.0957 39.7003 52.3258 39.0381 51.7387C38.4397 51.2082 37.6947 50.8713 36.9011 50.7725L36.3003 50.6977C36.0092 50.6614 35.7155 50.6523 35.4228 50.6705L34.9168 50.7019C33.8413 50.7687 32.7855 51.0214 31.7964 51.449L31.7632 51.4633C31.4282 51.6081 31.1069 51.7829 30.8033 51.9855L21.866 57.9494L11.4603 64.1603L8.79888 65.9198L7.52477 66.8147C6.97533 67.2006 6.54241 67.73 6.27325 68.3451C6.18167 68.5544 6.17862 68.7918 6.26479 69.0034L6.30848 69.1107C6.44168 69.4377 6.6649 69.7203 6.95224 69.9256L7.15159 70.068C7.3448 70.2061 7.55051 70.3257 7.76605 70.4253L7.80807 70.4448C8.43805 70.736 9.11732 70.9057 9.81024 70.9451L30.0157 72.0929Z" fill="#F3367E"/>
</svg>
