<svg width="45" height="48" viewBox="0 0 45 48" fill="none" xmlns="http://www.w3.org/2000/svg">
<path d="M29.7001 27.84C28.0829 27.84 27 29.295 27 31.68C27 34.065 27.8016 36.525 29.7001 36.48C31.6969 36.4313 32.4176 34.3463 32.4 31.68C32.386 29.295 31.3137 27.84 29.7001 27.84ZM39.8356 16.3838C40.0817 15.0938 40.1872 10.5263 38.4118 5.76001C38.4118 5.76001 34.3336 6.23626 28.1672 10.7513C26.877 10.3688 24.6868 10.1775 22.5 10.1775C20.3133 10.1775 18.1266 10.3688 16.8293 10.7475C10.6665 6.23626 6.59185 5.76001 6.59185 5.76001C4.81294 10.5263 4.90083 14.985 5.1645 16.3838C3.07622 18.8025 1.80005 21.705 1.80005 25.6725C1.80005 42.9188 15.2157 43.1963 18.6012 43.1963C19.3676 43.1963 20.8899 43.1963 22.5 43.2C24.1102 43.1963 25.636 43.1963 26.3989 43.1963C29.7844 43.1963 43.2001 42.9188 43.2001 25.6725C43.2001 21.705 41.9239 18.8025 39.8356 16.3838ZM22.6266 41.28H22.5C14.0133 41.28 7.34067 39.9938 7.34067 31.1963C7.34067 29.0888 8.04028 27.135 9.69614 25.5113C12.4594 22.8038 17.1317 24.2363 22.4368 24.2363C22.4579 24.2363 22.5458 24.2363 22.5633 24.2363C27.8684 24.2363 32.5442 22.8075 35.3075 25.5113C36.9633 27.135 37.6594 29.0888 37.6594 31.1963C37.6594 39.9938 31.1133 41.28 22.6266 41.28ZM15.3 27.84C13.6864 27.84 12.6 29.775 12.6 32.16C12.6 34.545 13.6864 36.48 15.3 36.48C16.9172 36.48 18 34.545 18 32.16C18 29.775 16.9172 27.84 15.3 27.84Z" fill="white"/>
</svg>
